<?xml version="1.0" encoding="utf-8"?>
<!-- Generator: Adobe Illustrator 25.4.1, SVG Export Plug-In . SVG Version: 6.00 Build 0)  -->
<svg version="1.1" id="Layer_1" xmlns="http://www.w3.org/2000/svg" xmlns:xlink="http://www.w3.org/1999/xlink" x="0px" y="0px"
	 viewBox="0 0 66 66" style="enable-background:new 0 0 66 66;" xml:space="preserve">
<style type="text/css">
	.st0{fill:#920000;}
	.st1{fill:#FFFFFF;}
</style>
<circle class="st0" cx="33.2" cy="33" r="32.5"/>
<path class="st1" d="M54.5,28.6l-0.3,1.8l0,0c0-0.5-0.2-1-0.3-1.4c-0.3-0.7-0.6-1.4-0.7-1.8l0.7,0.3l0.7,0.3L54.5,28.6z M43.8,25.7
	l-0.1,2.1l0.1,0.4l0.5-0.3c0.5-0.2,0.7-0.5,1.4-0.5c0.2,0,0.4,0,0.5,0.1c1.2,0.4,2.5,1.8,2.5,2.9v0.3v0.2c-0.1,0.2-0.2,0.5-0.5,0.5
	h-0.5l-1.5-0.1h-0.1c-0.2,0-0.2,0-0.4-0.2H45h-0.2c-0.3-0.4-0.5-0.5-0.6-1.1h-0.4L43.8,31v0.9l-0.1,3.2L43.6,36
	c0,0.2,0.1,0.3,0.2,0.3c0.2,0,0.5-0.6,1.3-0.6h0.5c0.2,0,0.2,0,0.3-0.1c0.2,0.1-0.2,0.1,0.2,0.1h0.3h1.5c0.3,0,0.6,0,0.6,0.4v0.2
	c0,0.9-1.6,3.8-2.1,4.4c0,0.1-0.1,0.1-0.1,0.2c-0.3,0.3-0.5,0.5-0.6,0.7c-0.3,0.5,0.1,0.1-0.4,0.5C45,42,45,42.2,44.8,42.4
	c-0.7,0.8-0.9,0.8-1.9,1.4h-0.2h-0.1c-0.2,0-0.3-0.1-0.3-0.3c0-0.3,0.1-1.2,0.1-1.3l-0.2-1.6v-1.2c0-0.2,0-0.2,0.1-0.4v-0.2l0.2-1.4
	l0.1-5.2v-0.5l0.1-5.8l0.1-2v-2.2v-2.1l0.1-1.3c0-0.3,0-0.1-0.1-0.2c0.1-0.2,0.1,0.1,0.1-0.3v-1c0-1.4,0.3-3.3,1.7-3.3
	c0.5,0,1.1,0.2,1.5,0.5c1.5,0.8,2.7,2.6,3.3,3.7c-0.1,0.1-0.1,0.1-0.1,0.4c0,0.5-0.2,0.5-0.2,0.9v0.6l0.2,1.6
	c0.1,0.4,0.1,0.8,0.3,1.1c0.2,0.4,0.4,0.5,0.4,0.9c-0.3-0.1-0.7-0.4-1-0.5c-0.4-0.2-0.5-0.4-0.9-0.5c-0.4-0.2-1.4-0.6-1.9-0.7
	c-0.1,0-0.2,0-0.3,0c-0.2,0-0.2,0-0.4-0.1l-0.2,0.1c-0.2-0.1-0.1-0.1-0.4-0.1h-0.5c-0.5,0-0.8-0.3-0.8,0.2l-0.1,1.7V25.7z M52.9,35
	c-0.1,1.5-1.3,4.4-1.8,5.6c-0.5,0.9-0.8,1.6-1.4,2.4c-0.3,0.5-0.5,0.7-0.8,1c-0.3,0.5-0.5,0.6-0.8,1c-0.5,0.7-1.2,1.4-1.8,1.9
	c-0.6,0.5-1.4,1.1-2,1.7C43.8,49,40.2,51,39.4,51c-0.4,0-0.1-0.1-0.5-0.1h-0.2l-0.5-0.5v-0.2v-0.8c0-0.5-0.2-0.8,0-1.2l-0.1-0.3
	l0.1-0.3c-0.1-0.1-0.1-0.2-0.1-0.4l0.1-0.7v-0.4l0.1-0.9V44l0.1-5.1v-0.5l0.1-0.6l-0.1-0.3c0.1-0.2,0.1-0.1,0.1-0.4l0.1-4.6l0.1-2.9
	v-3.9v-0.7c0-0.3,0-0.1,0.1-0.2c-0.1-0.2-0.1,0-0.1-0.3l0.1-0.9v-0.2v-3.2v-1.6l0.1-4.4l0.2-2.4v-0.6c0-1.4,0.8-2.7,2.3-2.7h0.2
	c1,0,3.3,0.8,4.7,1.4c0.4,0.2,0.7,0.3,0.9,0.4c0.9,0.5,1.6,0.9,2.4,1.3c0.4,0.2,2,1.4,2,1.8c0,0.1-1.4,2.2-1.4,2.2s-0.9-1.2-1-1.3
	c-0.4-0.3-0.8-0.6-1.3-0.9c-0.4-0.3-1-0.6-1.7-0.9c-0.5-0.2-1-0.4-1.4-0.4h-0.1c-1.7,0-3,1-3,2.7v1.3c0,0.3,0,0.1,0.1,0.2
	c-0.1,0.1-0.1,0.1-0.1,0.1s0,0.1,0,0.2l-0.2,2.5v1.1v2.9v0.5l-0.2,7.1V36l-0.2,2.6V44c0,0.8,0.5,1.3,1.3,1.3c1.4,0,2.8-1.2,3.8-2.4
	c0.5-0.6,0.9-1.2,1.3-1.6c0.5-0.8,1.3-2,1.7-2.9c0.3-0.5,1.1-2.7,1.1-3.4v-0.3c0-0.2-0.2-0.4-0.4-0.4l-1.1-0.2h-0.2h-2.4l0,0h-0.8
	c-0.2,0-0.2,0-0.5,0.1v-1.4c0-0.3,0.1-0.4,0.1-0.5h0.5c0.2,0,0.2,0,0.3,0.1c0.1-0.1-0.1-0.1,0.2-0.1h0.3l0.9,0.1H49l0.9,0.1
	c0.2,0,0.3-0.1,0.3-0.3v-0.5c0-1.5-0.6-2.9-1.3-3.8c-0.5-0.6-1.7-1.7-2.7-1.9c-0.1,0-0.2,0-0.3,0h-0.8c-0.2,0-0.3-0.1-0.3-0.3v-2.1
	c0-0.2,0-0.2,0.1-0.3c-0.1-0.1-0.1,0.2-0.1-0.2v-0.3c0.5,0,1,0.1,1.4,0.2c0.7,0.2,1.4,0.5,1.9,0.8c0.4,0.2,1.1,0.5,1.4,0.8
	c0.5,0.4,0.7,0.6,1.1,1c1.4,1.4,2.1,3.7,2.3,6.2l0.1,1.4L52.9,35z M37.9,8.2l-0.3,1.7v0.6l-0.1,3.2v0.2l-0.2,0.5L37,15.3h-0.3
	c-0.4-1.5-0.5-1.6-1.2-2.8c-0.4-0.6-0.8-2.2-0.9-3.1V8.8l-0.1-0.9h0.1l2.7,0.2h0.2C37.8,8,37.9,8,37.9,8.2 M37.6,17.6
	c-0.1,0-0.1-0.1-0.2-0.1c-0.1,0-0.2-0.1-0.2-0.2c0-0.4,0.2-0.4,0.2-0.8h0.1h0.1l0.1,0.7L37.6,17.6z M37.5,22.8l-0.1,0.6v1.1v1.7l0,0
	c-0.5,0-0.7-0.1-1.1-0.1l-1,0.1c-0.2,0-0.5,0-0.7,0.1c-0.2,0.1-0.4,0.2-0.4,0.4c0,0.5,0.2,1.1,0.4,1.6c0.1,0.4,0.2,0.7,0.1,1
	l-0.1,0.9l-0.2,1.3v0.5c0,0.2,0.1,0.2,0.1,0.3l0.1,0.1c0.3-0.5,0.5-1.3,0.8-1.8c0.2-0.5,0.6-1.4,0.6-2v-0.3c0-0.4-0.1-0.5-0.3-0.8
	l0.5,0.1l0.7,0.1h0.2c0,0.1,0.1,0.2,0.2,0.3c0,0.1,0,0.1,0,0.2v0.1c0,0.1-0.1,0.1-0.2,0.1h-0.4h-0.2l-0.3,0.1c0,0.6,0.5,1.2,1,1.4
	l0,0v0.2V31l-0.1,2v1.6l-0.1,0.5c0,0.2,0.1,0.3,0.1,0.5V37v2.6l0.1,0.6l-0.1,0.6c-0.8,0.1-1.4,0.5-2.4,0.5h-0.2h-1h-0.3
	c-0.2-0.1-0.3-0.2-0.5-0.2s-0.2,0-0.3-0.1c0-0.2,0.1-0.2,0.1-0.5v-0.4l-0.2-1.4v-0.3c0.1,0.1,0.4,0.3,0.5,0.3h0.5h0.3
	c0.2,0,0.2,0,0.4-0.1l0.2,0.1c0.1,0,0.2-0.1,0.2-0.1c0.1,0,0.2,0,0.3,0c0.3,0,0.5-0.4,0.6-0.5c0.3-0.3,0.4-0.3,0.4-0.7l-1.3,0.1h-1
	h-0.1h-0.5c-0.3,0-0.4,0.1-0.5,0.1L32.3,37c0.4,0,0.9,0.2,1.3,0.3c0.1,0,0.1,0,0.2,0l0.9-0.1l0.8-0.1l0.4,0.1
	c0.5-0.2,0.4-0.2,0.7-0.5c0.2-0.2,0.5-0.4,0.5-0.6V36c0-0.1-0.1-0.3-0.2-0.3l-2.2,0.2l-1,0.1h-0.3h-0.1c-1,0-1.2-0.1-1.4-1
	c-0.2-0.8-0.3-1.1-0.5-1.8c0-0.1-0.2-0.4-0.4-0.8c-0.4-1-1-2.4-1-2.4c0-0.2,1-1,1-1.3s-0.3-0.3-0.5-0.4L30,28.4h-0.5h-0.2
	c-0.4-0.2-0.5-0.3-0.5-0.6h1.6l0.5,0.1h0.2c0.2,0.3,0.4,0.3,0.5,0.6c0.1,0.3,0.2,0.5,0.5,0.5h0.1c0.2,0,0.2-0.1,0.3-0.3l0.1-0.8
	l0.2-1.4c0-0.4-0.2-0.3-0.4-0.2c-0.1-0.1,0.2-0.1-0.2-0.1H31h-1.9h-0.5h-0.2l-0.3,0.1c-0.7-0.4-0.8-0.8-1.4-1.4l-0.1-0.1
	c-0.2-0.2-0.5-0.5-0.9-0.8c-0.2-0.1-0.4-0.4-0.4-0.5c0-0.1,0.2-0.4,0.5-0.7c0.3-0.3,0.5-0.6,0.9-0.9c0.8-0.8,1.7-1.5,2-1.7
	c0.7-0.4,1.4-0.7,2.4-1h0.1c0.7-0.2,1.8-0.5,2.6-0.5h0.8c0.1,0,0.1,0,0.2,0c0.7,0.1,2.4,0.5,2.8,0.9c0.1,0.1,0.1,0.1,0.1,0.2v1.8
	L37.5,22.8z M37.2,45.2L37,51.1v0.1c0,1-0.5,1-1.4,1h-0.1c-0.4,0-0.5,0.1-0.9,0.2c-0.1,0.1-0.2,0.1-0.5,0.1c0-0.2,0.3-0.5,0.5-0.9
	c0.2-0.3,0.5-0.6,0.5-0.8c0.3-0.5,0.6-1.4,0.6-2l0.1-2v-0.9c0-0.6,0.5-2.4,0.7-2.7c0.1,0.3,0.5,1.2,0.5,1.5
	C37.2,44.6,37.2,45.2,37.2,45.2z M33.8,45.2L33.8,45.2c0-0.5-0.2-0.5-0.2-0.9V44l0.2-1.1h0.9h0.1c0.2,0,0.3,0,0.5-0.1
	c0,0.5-0.5,1.3-0.5,2.2l0.1,3v0.2l-0.1,0.3c0,0-0.1-0.1-0.1-0.3C34.4,47.4,33.8,45.5,33.8,45.2 M33.6,50.3l-0.1,1.4l-0.1,0.7
	l-0.4-0.1l-2-0.2h-0.5c0-0.5,0.2-1,0.5-1.4c0-0.1,0.1-0.2,0.1-0.3c0.2-0.5,0.3-1.2,0.5-1.6c0.3-1,0.8-2.2,0.8-3.3
	c0.2,0.1,0.6,1.8,0.8,2.2c0.2,0.5,0.5,1.7,0.5,2.4L33.6,50.3L33.6,50.3z M29.5,51c-0.2,0.5-0.3,0.7-0.5,1.2c-0.1,0.3-0.4,0.7-0.5,1
	c-0.3,0.5-0.9,1.6-1.4,1.8c0-0.5,0.5-1.2,0.6-1.8c0.1-0.4,0.5-1.3,0.6-1.7c0.2-0.5,0.4-1.4,0.4-2c0-0.7,0.3-1.3,0.4-2l0.1-1.4
	l0.1-2.4l-0.1-2.4c-0.2-3.4-1.2-7-2.5-9.9c-0.3-0.6-0.5-1.2-0.9-1.7c-0.3-0.5-0.5-1-0.8-1.4c-0.2-0.3-0.4-0.5-0.5-0.7
	c-0.4-0.5-0.6-0.9-1-1.4c-0.1-0.2-0.2-0.3-0.4-0.5c-0.2-0.2-0.4-0.5-0.6-0.8c-0.5-0.5-1-1.2-1.4-1.5c-0.3-0.3-0.5-0.5-0.7-0.7
	c-0.2-0.2-0.5-0.5-0.6-0.6c-0.3-0.3-0.5-0.5-0.9-0.7c-0.1-0.1-0.2-0.1-0.3-0.2c-0.4-0.3-0.6-0.5-1-0.7c-0.3-0.2-0.4-0.3-0.5-0.5l0,0
	c-0.1-0.1-0.5-0.5-0.5-0.5l0.1-0.1c0.1,0.1,0.3,0.2,0.5,0.3c0.4,0.2,0.7,0.3,1,0.4c0.2,0.1,0.4,0.2,0.5,0.3c0.3,0.2,0.6,0.4,0.9,0.5
	c0.1,0,0.2,0.1,0.3,0.2c0.2,0.1,0.5,0.3,0.6,0.4c0.2,0.1,0.3,0.2,0.5,0.3c0.4,0.3,0.9,0.5,1.3,0.8c0.1,0.1,0.3,0.2,0.4,0.3
	c0.4,0.3,0.6,0.5,0.9,0.7c0.4,0.3,0.6,0.5,1,0.9c0.5,0.5,0.9,0.9,1.4,1.4c0.3,0.3,0.5,0.6,0.7,0.9c0,0.1,0.1,0.1,0.1,0.2
	c1.4,1.7,2.1,3.2,3.1,5.2c0.5,1.1,1,2.7,1.4,4.3c0.2,0.9,0.3,1.8,0.4,2.5l0.1,3.3L31,46.1l0,0C30.8,47.6,30.1,49.9,29.5,51
	 M26.9,50.9c-0.1,0-0.2,0-0.3-0.1c-0.2-0.1-0.5-0.2-0.9-0.4c-0.5-0.2-0.9-0.5-1.4-0.7c-0.4-0.2-0.7-0.5-1-0.6
	c-0.4-0.2-0.5-0.5-0.5-0.5c0-0.1,0.3-0.3,0.5-0.5c0.3-0.3,0.7-0.5,1-0.8c0.2-0.1,0.3-0.2,0.4-0.3c0.2,0.5-0.2,0.8,0.5,1.7h0.5h0.5
	c0.2,0,0.4-0.1,0.5-0.1c0.4-0.1,0.6-0.3,0.9-0.4l-0.3,1.6c-0.1,0.4-0.2,0.5-0.2,0.9C26.9,50.9,27.2,50.9,26.9,50.9 M22.4,42.9
	L22.4,42.9H23c-0.2,0.4-0.4,0.6-0.5,0.8c-0.2,0.2-0.4,0.3-0.5,0.4L22.4,42.9z M24.6,45.8c0,0.3-0.1,0.5-0.3,0.5
	c-0.1,0-0.2,0.1-0.3,0.1c0.1-0.2,0.2-0.4,0.3-0.5C24.4,45.9,24.5,45.9,24.6,45.8 M22.2,33.4c0-0.5,0.3-0.7,0.3-1.2v-2.8
	c0-0.2,0.1-0.6,0.1-0.9c0.1-0.3,0.2-0.5,0.3-0.5c0,0,0.3,0.5,0.6,0.9c0.4,0.5,0.7,1.2,1,1.4c0.1,0.1,0.1,0.2,0.1,0.2
	c0.2,0.4,1,1.9,1.2,2.6c0,0.2,0.1,0.3,0.1,0.4l0.3,0.2l0.1,0.7c0,0.2-0.2,0.4-0.4,0.4h-0.1h-0.4c-0.5,0-0.6-0.1-1-0.2
	c-0.1,0-0.1,0-0.2,0c-0.3,0-0.5,0-0.8-0.1c-0.4-0.1-0.6-0.2-0.9-0.2c-0.1,0-0.1,0-0.2,0C22.2,34,22.2,33.7,22.2,33.4 M22.5,39.8
	l0.1-0.3v-0.2l0.1-1.4c0.1-1.1,0.2-1.5,0.5-2.3h0.1l0,0c0.4,0,0.7,0.5,0.9,1c0.1,0.2,0.1,0.4,0.2,0.5c0.5,0,0.9-0.5,1.2-0.8
	c0.2-0.2,0.4-0.5,0.5-0.5h0.4h0.1c0.1,0.4,0.4,0.9,0.4,1.3s0.3,1.3,0.4,1.7c0.1,0.6,0.3,1.1,0.3,1.7l0.1,1.4l0.1,2.3v2.5
	c-0.3,0.1-0.9,0.4-1.3,0.5c-0.2,0.1-0.4,0.2-0.4,0.2s-0.2-0.1-0.3-0.1c-0.1-0.3-0.1-0.2-0.1-0.4c0-0.5,0.3-0.9,0.3-1.4
	c0-0.3-0.4-0.5-0.4-1.1c0,0,0.5-0.6,0.5-0.8c0-0.3-0.2-0.4-0.4-0.5c-0.1,0-0.1,0-0.2,0c-0.1,0-0.1,0-0.3,0c-0.3,0-0.2-0.1-0.5-0.1
	c-0.1-0.2-0.4-0.7-0.4-1c0-0.4,0.1-0.3,0.1-0.6v-0.2v-0.2h-0.1h-0.1h-0.1c-0.3,0-0.5,0-0.8,0.1c-0.4,0.1-0.6,0.3-0.9,0.4
	c-0.1,0-0.2,0.1-0.3,0.1s-0.3-0.2-0.3-0.4v-0.1v-0.2L22.5,39.8z M22.5,48.2c-0.1,0.1-0.2,0.2-0.2,0.2c-0.1,0-1.1-0.7-1.8-1.4
	c-0.3-0.3-0.5-0.5-0.6-0.6c-0.1-0.1-0.1-0.1-0.1-0.2c0-0.1,0-0.1,0.1-0.2c0.1,0,0.1,0,0.2,0h0.1c0.1,0,0.3,0,0.5-0.1
	c0.5-0.1,1.2-0.5,1.5-0.5c0.2-0.1,0.4-0.2,0.5-0.3c0.1-0.1,0.2-0.1,0.3-0.2c0.2-0.2,0.4-0.5,0.6-0.5l0,0h-0.1c0.2,0,0.4,0.2,0.4,0.4
	v0.3c0,0.2,0,0.2,0.1,0.3c-0.1,0.2-0.3,0.6-0.5,1.2C23.1,47,22.8,47.8,22.5,48.2 M21.2,39.2L21.1,40l-0.5,0.1l-0.6,0.2
	c0.1-0.2,0.3-0.5,0.5-0.7C20.7,39.5,21,39.3,21.2,39.2 M18.9,45.4c0,0-0.1-0.1-0.2-0.3c-0.4-0.5-1-1.4-1.5-2.2
	c-0.3-0.4-0.5-0.7-0.6-0.9c-0.4-0.6-1.8-3.3-1.8-4c0.2,0.1-0.1,0.1,0.3,0.1c0.2,0,0.9,0.1,1.1,0.2c0.5,0.1,0.6-0.1,1.1-0.1
	c0.5,0,1.1-0.2,1.5-0.5c0.4-0.2,0.7-0.4,1.1-0.5c0.2-0.1,0.5-0.1,0.6-0.1c0.1,0,0.2,0,0.4,0H21c0.2,0,0.3,0.1,0.3,0.3v0.2
	c0,0.1-0.4,0.5-0.7,0.9c-0.2,0.2-0.5,0.5-0.6,0.6c-0.4,0.3-0.5,0.5-0.7,0.6c-0.1,0.1-0.3,0.2-0.5,0.4c-0.5,0.5-1.2,1-1.5,1.4
	c-0.1,0.1-0.2,0.3-0.2,0.4c0.1,0,0.1,0,0.2,0c0.5,0,1-0.2,1.5-0.4c0.4-0.1,0.7-0.3,1.1-0.3c0.1,0,0.2,0,0.3,0c0.2,0,0.3,0,0.5-0.1
	c0.1,0,0.1,0,0.2,0c-0.1,0.2-0.1,0.2-0.1,0.5v0.2L20.5,42l-0.1,0.2v0.2v0.2v-0.1c0,0.1,0.1,0.1,0.1,0.2c0.2,0.3,0.3,0.5,0.6,0.5
	c-0.2,0.4-0.4,0.7-0.6,1.1c-0.2,0.3-0.5,0.5-0.6,0.7C19.5,45.2,19.2,45.4,18.9,45.4 M13.5,33.8c-0.2-0.7-0.2-1.4-0.3-2.1
	c-0.1-0.6-0.4-1.3-0.4-2V28c0.4,0.1,1.3,1,1.7,1.4c0.4,0.3,0.5,0.5,1,0.6c0.1,0,1.2,0.3,1.3,0.3c0.3,0,0.1,0.2,0.5,0.2h-0.1l1,0.1
	c0.2,0,0.4,0,0.5,0.1c0.4,0.1,0.5,0.2,0.9,0.3c-0.1,0.5-0.5,0.5-0.9,0.6c-0.1,0-0.2,0-0.3,0.1c-0.4,0.1-0.9,0.4-1.3,0.5
	c0,0,0,0-0.1,0c-0.5,0.2-2.2,0.8-2.5,0.8h-0.2c0,0.3,0,0.5,0.3,0.5h2.2h0.2l0.3,0.1h0.1h0.2h0.6l0.6,0.1h0.1c0.2,0,0.1,0,0.3,0.1
	c0,0.1-0.2,0.4-0.4,0.6c-0.5,0.5-1.3,1.3-1.5,1.6l0,0c-0.3,0.3-0.7,0.7-1.1,0.9c-0.1,0.1-1.4,0.6-1.4,0.6h-0.1
	C13.9,37.4,13.6,34.6,13.5,33.8 M19.8,24.4h-1.1h-0.2l-1.1-0.1c-0.1,0-0.2,0-0.3,0s-0.2,0-0.4-0.1l0.4-0.7l0.5-1
	c0.3,0,0.6,0.3,1,0.5c0.4,0.3,0.8,0.7,1.1,1c0.2,0.2,0.3,0.4,0.4,0.5L19.8,24.4z M20.4,26.2c-0.3-0.2-0.5-0.4-0.6-0.5
	c0,0-0.1,0-0.1-0.1h0.1l0.6,0.1l0.8,0.1c0.2,0.3,0.5,0.3,0.5,0.6c0,0.2,0,0.1-0.1,0.4C21.4,26.7,20.9,26.5,20.4,26.2 M20.4,34.6
	c0.1-0.1,0.3-0.1,0.4-0.1c0.1,1,0.5,0.9,0.6,1.5h-0.8c-0.1,0-0.1,0-0.2,0c-0.3,0-0.5,0.1-0.6,0.2c-0.4,0.2-0.7,0.4-1.1,0.5
	c-0.3,0.1-0.5,0.2-0.9,0.2c0.1-0.2,0.5-0.5,0.9-0.9c0.4-0.3,0.7-0.6,1.1-0.9C20,34.9,20.3,34.7,20.4,34.6 M20.4,32
	c0.2-0.1,0.5-0.1,0.6-0.1v0.4c0,0.3-0.1,0.5-0.2,0.6l-0.5-0.1h-0.1h-0.5l-1.1-0.1l0,0v-0.2h0.1c0.5,0,0.8-0.2,1.1-0.4
	C20,32.1,20.3,32,20.4,32 M21.1,29.3C21,29.4,21,29.4,21,29.7v0.4c-0.1,0-0.3,0-0.5-0.1c-0.2,0-0.5-0.1-0.6-0.2
	c-0.4-0.1-0.8-0.2-1.1-0.3c-0.1,0-0.2,0-0.2,0c-0.3-0.1-0.8-0.2-1.4-0.3c-0.5-0.1-1-0.3-1.2-0.4h0.8c0.1,0,0.2,0,0.4,0
	c0.5-0.1,1-0.3,1.5-0.5c0.3-0.1,0.5-0.1,0.9-0.1h0.3l0,0l0.5,0.1h0.2c0.3,0.4,0.5,0,0.5,0.5C21.1,29.1,21.1,29.1,21.1,29.3
	L21.1,29.3z M13,26.8c1.5,0,3.1-2,3.3-2c0.1,0,0.4,0.2,0.7,0.4c0.5,0.3,1,0.5,1.2,0.6c0.2,0.1,0.3,0.2,0.4,0.3
	c0.2,0.1,0.3,0.2,0.5,0.3c0.3,0.2,0.5,0.3,0.6,0.5c0.1,0.1,0.1,0.2,0.1,0.3h-0.1l-0.6,0.1c-0.2,0-0.3,0-0.5,0.1
	c-0.5,0.1-1,0.2-1.5,0.3c-0.2,0-0.5,0-0.6,0h-0.4c-0.3,0-0.3,0-0.5,0.1c-0.2-0.1-0.1-0.1-0.5-0.1h-0.2c-0.5,0-1.4-0.5-1.8-0.5
	L13,26.8L13,26.8z M25.2,20.5c-0.2,0.4-0.3,0.4-0.5,0.6c-0.1-0.1-0.2-0.2-0.4-0.3c-0.4-0.4-0.8-1-1-1.4c0-0.1,0-0.1,0-0.1l0,0l1,0.6
	L25.2,20.5z M28.6,18.1c0,0.1-1.4,0.9-1.7,0.9c0-0.3-0.1-0.6-0.3-0.9c-0.3-0.5-0.6-1-0.9-1.5c-0.3-0.4-0.5-0.8-0.5-1.1
	c-0.1-0.1-0.2,0-0.2-0.3c0-0.5-0.3-1-0.3-1.6V13c0.3,0.1,0.6,0.8,0.8,1.2c0,0.1,0.1,0.1,0.1,0.1c0.2,0.4,0.5,0.5,0.8,0.8
	c0.1,0.1,0.2,0.2,0.4,0.3c0.5,0.3,0.8,0.6,1.1,1C28.2,16.7,28.6,17.7,28.6,18.1 M31.4,17.2c-0.2,0-0.3,0-0.4,0.1c-0.1,0-0.1,0-0.3,0
	h-0.5c0-0.3,0.1-0.3,0.1-0.5v-1.2c0.2,0.1,0.4,0.5,0.5,0.8C31.2,16.6,31.4,17,31.4,17.2 M33.7,16.7c0-0.4,0.2-0.6,0.2-1.1
	c0-0.5-0.1-0.9-0.3-1.4c-0.1-0.5-0.3-0.9-0.3-1.4V12c0-0.4,0.1-0.8,0.3-1.1c0.1-0.1,0.1-0.2,0.2-0.2c0.3,1.2,0.4,1.6,0.9,2.6
	c0,0.1,0,0.1,0.1,0.1c0.5,0.9,1,1.4,1,2.7v0.6c0,0.2-0.1,0.3-0.3,0.3L34.7,17h-0.1h-0.9C33.7,16.7,33.7,17.1,33.7,16.7 M16.7,13.8
	c-0.2-0.3-0.7-0.9-0.7-1.1v-0.1v-0.2c0.2-0.4,0.5-0.7,1.1-1c0.5-0.3,1-0.5,1.5-0.7c0.4-0.2,0.7-0.3,1.1-0.5c0.2-0.1,0.5-0.2,0.6-0.2
	c0.4-0.1,0.7-0.2,1-0.3c0.3-0.1,0.6-0.2,1.1-0.4c0.3-0.1,0.5-0.2,0.9-0.3c0.3-0.1,0.6-0.2,1-0.3c0.5-0.1,0.9-0.3,1.4-0.4
	c0.3-0.1,0.6-0.2,0.9-0.2c0.5-0.2,1-0.3,1.3-0.3H28c0.5,0,1-0.2,1.5-0.2c0.2,0,1.4,0,1.5,0l1.8-0.3h0.7h0.3c0,0.1-0.1,0.3-0.3,0.5
	c-0.3,0.5-0.7,1.4-0.9,1.7c-0.3,0.8-0.6,1.6-0.6,2.7V13c0,0.7,0.3,1.8,0.5,2.3v0.2v0.7c-0.7-0.4-0.5-0.1-0.9-0.8
	c-0.2-0.4-0.4-0.6-0.5-1l0,0c-0.4-0.5-1.1-1.9-1.3-2.1c0-0.5-0.2-0.6-0.4-1c-0.1-0.4-0.1-0.7-0.5-0.7l0.5,3.9l-0.1,0.2l0.1,1.4
	c-0.6-0.1-2-1.7-2.4-2.2c-0.1-0.1-0.3-0.3-0.4-0.5c-0.3-0.4-0.6-0.8-0.9-1.4c-0.2-0.4-0.4-0.8-0.4-1.1c0-0.5-0.3-1.2-0.4-1.6
	c-0.3,0-0.5,0.4-0.6,0.8c-0.4,0.8-0.5,1.9-0.5,2.4l-0.1,1v0.5c0,0.8,0.3,2.3,0.6,2.8c0,0,0,0.1,0.1,0.1c0.5,0.7,1,1.1,1,2.3
	c-0.3-0.1-0.5-0.2-1-0.5c-0.3-0.2-0.6-0.4-1-0.6c-0.3-0.2-0.6-0.4-0.9-0.6c-0.7-0.5-1.4-1-2-1.4c-0.3-0.2-0.5-0.3-0.6-0.3h-0.1
	c0,0.1,0,0.2,0.1,0.3c0.1,0.3,0.4,0.7,0.6,1.1c0.4,0.5,0.7,0.9,0.8,1.1c0.5,0.7,0.8,1.2,1.2,1.8c0.1,0.2,0.3,0.5,0.4,0.7l-0.1,0.5
	c-0.2-0.1,0.1-0.1-0.3-0.1c0,0,0,0-0.1,0c-0.5-0.1-1.4-0.9-2-1.3c0,0,0,0-0.1,0c-0.2-0.1-0.5-0.2-0.6-0.3s-0.4-0.2-0.5-0.3
	c-0.1-0.1-0.4-0.2-0.5-0.3c-0.3-0.1-0.5-0.3-0.5-0.4v-0.4c0-1.2-0.5-2.4-0.8-3.3c-0.1-0.3-0.2-0.5-0.3-0.6
	C17,14.3,16.9,14.1,16.7,13.8 M56,27c0-0.2-0.1-0.2-0.3-0.3l-0.6-0.1c-0.2-0.3-0.7-0.5-1.2-0.7c-0.1-0.1-0.2-0.1-0.2-0.2
	c-0.5-0.4-0.8-0.6-1.2-1c-0.4-0.5-0.6-0.8-0.9-1.4c-0.3-0.5-0.5-1.1-0.7-1.5v-0.2l-0.1-0.8v-0.2v-2.5c0-0.3,0.1-0.2,0.2-0.3
	c0-1.4,1.8-4.2,2.9-4.4v-0.2c0-0.2-0.7-0.5-1-0.7c-0.3-0.3-0.6-0.5-0.9-0.6c-0.6-0.5-1.2-1-1.8-1.4c-1.2-0.7-2.6-1.4-4-2
	c-0.1,0-0.2-0.1-0.3-0.1c-2.4-0.9-5.3-1.8-8.6-2.1c-0.5-0.1-1.2-0.1-1.8-0.1h-0.9h-1h-1l-1.5,0.1H31l-2.4,0.3
	c-0.6,0.1-1.3,0.2-1.9,0.3C26.4,7,26.1,7,25.8,7.1l0,0c-0.4,0.1-0.9,0.3-1.4,0.4c-0.4,0.1-0.7,0.2-1,0.3c-0.1,0-0.2,0-0.3,0
	c-0.4,0-0.1,0.1-0.5,0.1c-0.1,0-0.1,0-0.1,0c-0.7,0-1.4,0.5-2,0.7c-0.1,0.1-0.2,0.1-0.4,0.2c-0.1,0-0.3,0.1-0.4,0.1
	C19.3,8.9,19,9,18.7,9.2c-0.4,0.1-0.6,0.3-1.1,0.5c-0.1,0.1-0.3,0.2-0.5,0.3c-1.2,0.5-3.5,1.9-4.1,2v0.5c0,0.4,1,0.8,1.3,1
	c0.3,0.2,0.8,0.9,1.1,1.2c0.5,0.5,1.4,2.2,1.4,3.1V18c0,0.2,0,0.2,0.1,0.3c-1.2,0-2.9-1.1-4.2-1.3c-1.4-0.2-3.1-0.8-4.6-0.6v0.5
	c0,0.2,0,0.3,0.1,0.5c0.2,0,0.8,0.4,1.1,0.4c0.4,0.1,0.9,0.2,1.1,0.5c0.6,0,2.7,1.2,3.3,1.5c0.5,0.4,2.5,1.6,2.8,2.1v0.2
	c0,0.1-0.6,1.4-0.7,1.5c-0.3,0.5-0.7,0.8-1.1,1.2c-1,0.9-1.7,1-3.2,1.4v1.4l0.1,2l0.3,2.5l0.3,2.1c0.6,3.9,2.9,9.4,5,11.7l0,0
	c0.5,0.5,1,1.1,1.5,1.6c0.2,0.2,0.4,0.4,0.5,0.5c0.2,0.2,0.4,0.5,0.6,0.6c0.2,0.2,0.3,0.3,0.5,0.5c0.1,0,0.1,0.1,0.2,0.2
	c0.4,0.3,0.7,0.5,0.9,0.8c0.3,0.3,0.7,0.5,1.1,0.8c0,0,0.1,0,0.1,0.1c0.4,0.3,0.5,0.4,0.8,0.5c0.2,0.1,0.4,0.2,0.5,0.3
	c0.1,0.1,0.3,0.2,0.5,0.3c0.4,0.3,0.9,0.6,1.4,0.8c0.3,0.2,0.6,0.3,0.9,0.3h0.1c-0.1,0.2-0.1-0.1-0.1,0.3v0.1c0,0.1,0,0.2,0,0.2
	c-0.1,0.5-0.5,1.4-0.9,2.3c-0.4,0.7-0.6,1.4-0.8,1.7c-0.1,0.4-0.4,0.8-0.5,1.3c-0.3,0.5-0.6,1.1-1,1.5c-0.3,0.4-0.5,0.6-0.8,0.7v0.2
	v0.1v0.2l0.2,0.4H23h0.2c0.1-0.1,0.2-0.1,0.3-0.2c0.4-0.2,0.6-0.5,1-0.7c0.5-0.5,0.9-0.9,1.4-1.4c0.3-0.4,0.6-0.6,0.9-1
	c0.1-0.2,0.3-0.3,0.4-0.5c0.5-0.5,1.3-1.5,1.6-2.1c0.5-0.7,0.7-1.8,1.4-2.3c0.3,0.2,0.6,0.3,1,0.4c0.5,0.1,1.1,0.1,1.5,0.1h0.5
	c0.2,0,0.2,0,0.3,0.1c0.1-0.1-0.2-0.1,0.2-0.1h0.1h0.5c0.2,0,0.4,0,0.6-0.1c0.4-0.1,0.7-0.2,1-0.2l1.2-0.2c0.2,0,0.4-0.1,0.5-0.1
	c2.7-0.5,4.8-1.6,6.8-3c0.5-0.4,1.4-1,2-1.5c0.4-0.3,0.6-0.5,0.9-0.8c0.7-0.7,1.9-1.9,2.4-2.7c1.5-2.2,2.7-3.8,3.9-6.5
	c0.2-0.5,0.4-0.9,0.5-1.3c0.3-0.8,0.5-1.6,0.7-2.6c0.2-0.7,0.3-1.4,0.5-2.1c0.1-0.4,0.5-1.8,0.5-2.1v-0.3l0.1-0.9l0.3-2
	C56,27.8,56,27,56,27z M32.3,32.9H32v0.4c0,0.5,0.9,1.2,1.6,1.6c0.2,0.1,0.3,0.2,0.5,0.3h0.2h0.5l0,0c0.3,0,1.8-1,1.8-1.6v-0.9
	c-0.5,0-1.4,0.8-1.9,1.1l0,0h-0.2h-0.1c-0.3,0-0.5-0.1-0.7-0.2C33.1,33.2,32.6,32.9,32.3,32.9"/>
</svg>
